<mxfile host="app.diagrams.net" modified="2024-04-14T13:55:25.025Z" agent="Mozilla/5.0 (X11; Linux x86_64; rv:124.0) Gecko/20100101 Firefox/124.0" etag="Wya2X31lJiS2jPNRrmSI" version="24.2.2" type="device">
  <diagram name="Page-1" id="t2hG8WztHcQz6JhaCs58">
    <mxGraphModel dx="946" dy="491" grid="1" gridSize="10" guides="1" tooltips="1" connect="1" arrows="1" fold="1" page="1" pageScale="1" pageWidth="850" pageHeight="1100" math="0" shadow="0">
      <root>
        <mxCell id="0" />
        <mxCell id="1" parent="0" />
        <mxCell id="XnPvESz1ggUDk7gX7ELK-2" value="&lt;font style=&quot;font-size: 20px;&quot; face=&quot;Inconsolata&quot;&gt;SIGNALLED&lt;/font&gt;" style="rounded=1;whiteSpace=wrap;html=1;fontStyle=1;fontSize=20;fillColor=#B6D7A8;strokeColor=#274E13;arcSize=2;" parent="1" vertex="1">
          <mxGeometry x="99" y="80" width="120" height="46" as="geometry" />
        </mxCell>
        <mxCell id="XnPvESz1ggUDk7gX7ELK-3" value="&lt;font style=&quot;font-size: 20px;&quot; face=&quot;Inconsolata&quot;&gt;INVOKED&lt;/font&gt;" style="rounded=1;whiteSpace=wrap;html=1;fontStyle=1;fontSize=20;fillColor=#B6D7A8;strokeColor=#274E13;strokeWidth=3;arcSize=2;" parent="1" vertex="1">
          <mxGeometry x="109" y="168" width="100" height="46" as="geometry" />
        </mxCell>
        <mxCell id="XnPvESz1ggUDk7gX7ELK-4" value="&lt;div style=&quot;font-size: 20px;&quot;&gt;&lt;font style=&quot;font-size: 20px;&quot; face=&quot;Inconsolata&quot;&gt;CALLBACK&lt;sub style=&quot;font-size: 20px;&quot;&gt;waiting&lt;/sub&gt;&lt;/font&gt;&lt;/div&gt;" style="rounded=1;whiteSpace=wrap;html=1;fontStyle=1;fontSize=20;fillColor=#ffe599;strokeColor=#BF9000;strokeWidth=1;perimeterSpacing=0;arcSize=2;" parent="1" vertex="1">
          <mxGeometry x="389" y="80" width="170" height="46" as="geometry" />
        </mxCell>
        <mxCell id="XnPvESz1ggUDk7gX7ELK-5" value="&lt;font style=&quot;font-size: 20px;&quot; face=&quot;Inconsolata&quot;&gt;CALLBACK&lt;sub style=&quot;font-size: 20px;&quot;&gt;invoked&lt;/sub&gt;&lt;/font&gt;" style="rounded=1;whiteSpace=wrap;html=1;fontStyle=1;fontSize=20;fillColor=#B6D7A8;strokeColor=#274E13;strokeWidth=3;arcSize=2;" parent="1" vertex="1">
          <mxGeometry x="250" y="168" width="170" height="46" as="geometry" />
        </mxCell>
        <mxCell id="XnPvESz1ggUDk7gX7ELK-6" value="&lt;font style=&quot;font-size: 20px;&quot; face=&quot;Inconsolata&quot;&gt;CALLBACK&lt;sub style=&quot;font-size: 20px;&quot;&gt;cancelled&lt;/sub&gt;&lt;/font&gt;" style="rounded=1;whiteSpace=wrap;html=1;fontStyle=1;fontSize=20;fillColor=#EA9999;strokeColor=#660000;strokeWidth=3;arcSize=2;" parent="1" vertex="1">
          <mxGeometry x="440" y="168" width="190" height="46" as="geometry" />
        </mxCell>
        <mxCell id="PFq8SXVakcnY2yoFkGDa-2" value="" style="group;fontFamily=Helvetica;fontSize=20;" parent="1" vertex="1" connectable="0">
          <mxGeometry x="280" y="40" width="70" height="46" as="geometry" />
        </mxCell>
        <mxCell id="PFq8SXVakcnY2yoFkGDa-1" value="" style="rounded=1;whiteSpace=wrap;html=1;fillColor=#CFE2F3;strokeColor=#0B5394;arcSize=2;" parent="PFq8SXVakcnY2yoFkGDa-2" vertex="1">
          <mxGeometry width="70" height="46" as="geometry" />
        </mxCell>
        <mxCell id="XnPvESz1ggUDk7gX7ELK-1" value="&lt;font face=&quot;Inconsolata&quot; style=&quot;font-size: 20px;&quot;&gt;EMPTY&lt;/font&gt;" style="rounded=1;whiteSpace=wrap;html=1;fontStyle=1;fontSize=20;fillColor=#CFE2F3;strokeColor=#0B5394;perimeterSpacing=0;fillStyle=solid;strokeWidth=2;fontFamily=Inconsolata;arcSize=2;" parent="PFq8SXVakcnY2yoFkGDa-2" vertex="1">
          <mxGeometry x="2.333333333333333" y="2.9361702127659575" width="65" height="40" as="geometry" />
        </mxCell>
        <mxCell id="PFq8SXVakcnY2yoFkGDa-5" value="" style="curved=1;endArrow=classic;html=1;rounded=0;exitX=1;exitY=0.5;exitDx=0;exitDy=0;entryX=0.5;entryY=0;entryDx=0;entryDy=0;strokeWidth=2;" parent="1" source="PFq8SXVakcnY2yoFkGDa-1" target="XnPvESz1ggUDk7gX7ELK-4" edge="1">
          <mxGeometry width="50" height="50" relative="1" as="geometry">
            <mxPoint x="380" y="80" as="sourcePoint" />
            <mxPoint x="550" y="70" as="targetPoint" />
            <Array as="points">
              <mxPoint x="460" y="63" />
            </Array>
          </mxGeometry>
        </mxCell>
        <mxCell id="PFq8SXVakcnY2yoFkGDa-11" value="&lt;font face=&quot;Courier New&quot; style=&quot;font-size: 12px;&quot;&gt;&lt;span style=&quot;font-size: 12px;&quot;&gt;register&lt;/span&gt;&lt;/font&gt;" style="edgeLabel;html=1;align=center;verticalAlign=middle;resizable=0;points=[];fontSize=12;fontStyle=1;labelBackgroundColor=none;" parent="PFq8SXVakcnY2yoFkGDa-5" vertex="1" connectable="0">
          <mxGeometry x="-0.2827" y="-2" relative="1" as="geometry">
            <mxPoint y="-11" as="offset" />
          </mxGeometry>
        </mxCell>
        <mxCell id="PFq8SXVakcnY2yoFkGDa-6" value="" style="curved=1;endArrow=classic;html=1;rounded=0;exitX=0.5;exitY=1;exitDx=0;exitDy=0;entryX=0.5;entryY=0;entryDx=0;entryDy=0;strokeWidth=2;" parent="1" source="XnPvESz1ggUDk7gX7ELK-4" target="XnPvESz1ggUDk7gX7ELK-6" edge="1">
          <mxGeometry width="50" height="50" relative="1" as="geometry">
            <mxPoint x="155" y="117" as="sourcePoint" />
            <mxPoint x="190" y="190" as="targetPoint" />
            <Array as="points">
              <mxPoint x="530" y="150" />
            </Array>
          </mxGeometry>
        </mxCell>
        <mxCell id="PFq8SXVakcnY2yoFkGDa-15" value="&lt;font face=&quot;Courier New&quot; size=&quot;1&quot;&gt;&lt;b style=&quot;font-size: 12px;&quot;&gt;tryUnregister&lt;/b&gt;&lt;/font&gt;" style="edgeLabel;html=1;align=center;verticalAlign=middle;resizable=0;points=[];labelBackgroundColor=none;" parent="PFq8SXVakcnY2yoFkGDa-6" vertex="1" connectable="0">
          <mxGeometry x="-0.1949" y="-5" relative="1" as="geometry">
            <mxPoint x="58" y="-3" as="offset" />
          </mxGeometry>
        </mxCell>
        <mxCell id="PFq8SXVakcnY2yoFkGDa-7" value="" style="curved=1;endArrow=classic;html=1;rounded=0;exitX=0.5;exitY=1;exitDx=0;exitDy=0;entryX=0.5;entryY=0;entryDx=0;entryDy=0;strokeWidth=2;" parent="1" source="XnPvESz1ggUDk7gX7ELK-4" target="XnPvESz1ggUDk7gX7ELK-5" edge="1">
          <mxGeometry width="50" height="50" relative="1" as="geometry">
            <mxPoint x="165" y="127" as="sourcePoint" />
            <mxPoint x="200" y="200" as="targetPoint" />
            <Array as="points">
              <mxPoint x="460" y="140" />
              <mxPoint x="360" y="150" />
            </Array>
          </mxGeometry>
        </mxCell>
        <mxCell id="PFq8SXVakcnY2yoFkGDa-14" value="signalAll" style="edgeLabel;html=1;align=center;verticalAlign=middle;resizable=0;points=[];fontStyle=1;fontSize=12;fontFamily=Courier New;labelBackgroundColor=none;" parent="PFq8SXVakcnY2yoFkGDa-7" vertex="1" connectable="0">
          <mxGeometry x="0.2072" y="3" relative="1" as="geometry">
            <mxPoint x="-21" y="-10" as="offset" />
          </mxGeometry>
        </mxCell>
        <mxCell id="PFq8SXVakcnY2yoFkGDa-8" value="" style="curved=1;endArrow=classic;html=1;rounded=0;exitX=0.5;exitY=1;exitDx=0;exitDy=0;entryX=0.5;entryY=0;entryDx=0;entryDy=0;strokeWidth=2;" parent="1" source="XnPvESz1ggUDk7gX7ELK-2" target="XnPvESz1ggUDk7gX7ELK-3" edge="1">
          <mxGeometry width="50" height="50" relative="1" as="geometry">
            <mxPoint x="204" y="137" as="sourcePoint" />
            <mxPoint x="239" y="210" as="targetPoint" />
            <Array as="points" />
          </mxGeometry>
        </mxCell>
        <mxCell id="PFq8SXVakcnY2yoFkGDa-13" value="&lt;font style=&quot;font-size: 12px;&quot; face=&quot;Courier New&quot;&gt;&lt;b style=&quot;font-size: 12px;&quot;&gt;register&lt;/b&gt;&lt;/font&gt;" style="edgeLabel;html=1;align=center;verticalAlign=middle;resizable=0;points=[];fontSize=12;labelBackgroundColor=none;" parent="PFq8SXVakcnY2yoFkGDa-8" vertex="1" connectable="0">
          <mxGeometry x="-0.0939" relative="1" as="geometry">
            <mxPoint x="31" y="-2" as="offset" />
          </mxGeometry>
        </mxCell>
        <mxCell id="PFq8SXVakcnY2yoFkGDa-9" value="" style="curved=1;endArrow=classic;html=1;rounded=0;exitX=0;exitY=0.5;exitDx=0;exitDy=0;entryX=0.5;entryY=0;entryDx=0;entryDy=0;strokeWidth=2;" parent="1" source="PFq8SXVakcnY2yoFkGDa-1" target="XnPvESz1ggUDk7gX7ELK-2" edge="1">
          <mxGeometry width="50" height="50" relative="1" as="geometry">
            <mxPoint x="185" y="147" as="sourcePoint" />
            <mxPoint x="190" y="260" as="targetPoint" />
            <Array as="points">
              <mxPoint x="190" y="64" />
              <mxPoint x="170" y="70" />
            </Array>
          </mxGeometry>
        </mxCell>
        <mxCell id="PFq8SXVakcnY2yoFkGDa-10" value="&lt;b style=&quot;font-size: 12px;&quot;&gt;&lt;font style=&quot;font-size: 12px;&quot; face=&quot;Courier New&quot;&gt;signalAll&lt;/font&gt;&lt;/b&gt;" style="edgeLabel;html=1;align=center;verticalAlign=middle;resizable=0;points=[];fontSize=12;labelBackgroundColor=none;" parent="PFq8SXVakcnY2yoFkGDa-9" vertex="1" connectable="0">
          <mxGeometry x="-0.0403" y="1" relative="1" as="geometry">
            <mxPoint x="4" y="-10" as="offset" />
          </mxGeometry>
        </mxCell>
      </root>
    </mxGraphModel>
  </diagram>
</mxfile>
